<svg xmlns="http://www.w3.org/2000/svg" xmlns:svg="http://www.w3.org/2000/svg" id="svg4682" width="48" height="48" version="1.1"><metadata id="metadata4687"/><g id="layer1" transform="translate(-2,-1002.3622)"><circle id="circle3426-5" cx="26" cy="1026.362" r="24" style="color:#000;display:inline;overflow:visible;visibility:visible;vector-effect:none;fill:#141414;fill-opacity:.752941;fill-rule:nonzero;stroke:none;stroke-width:15.118;stroke-linecap:butt;stroke-linejoin:round;stroke-miterlimit:4;stroke-dasharray:none;stroke-dashoffset:0;stroke-opacity:1;marker:none;enable-background:accumulate"/><path id="path3396" d="m 34.9746,1011.6122 c -0.5423,0.014 -0.9747,0.4575 -0.9746,1 v 2.75 H 19 l 3,3 h 12 v 2.75 c -2e-4,0.9059 1.1078,1.3453 1.7285,0.6855 l 4,-4.25 c 0.3626,-0.3851 0.3626,-0.986 0,-1.3711 l -4,-4.25 c -0.1951,-0.2073 -0.4693,-0.3217 -0.7539,-0.3144 z m -22.9746,0.75 -2,2 5,5 v 4 c 0,0.8284 0.6716,1.5 1.5,1.5 0.8284,0 1.5,-0.6716 1.5,-1.5 v -1 l 1.5,1.5 v 7.5 H 21 v -3.5 h 2.5 v 3.5 H 25 v -2 l 5,5 H 18 v -2.75 c 3e-4,-0.9058 -1.1079,-1.3454 -1.7285,-0.6856 l -4,4.25 c -0.3626,0.3851 -0.3626,0.986 0,1.3711 l 4,4.25 c 0.1951,0.2073 0.4693,0.3218 0.7539,0.3145 0.5423,-0.014 0.9748,-0.4575 0.9746,-1 v -2.75 h 15 l 5,5 2,-2 z m 15,9 v 2 l 1.5,1.5 v -2 H 31 v 2.5 h -2 l 2,2 1.5,1.5 v -1 a 1.5,1.5 0 0 0 -1.5,-1.5 1.5,1.5 0 0 0 1.5,-1.5 v -2 a 1.5,1.5 0 0 0 -1.5,-1.5 z m -6,4 1,1 h -1 z m 14.5,2.5 c -0.8284,0 -1.5,0.6715 -1.5,1.5 v 1 l 3,3 v -4 c 0,-0.8285 -0.6716,-1.5 -1.5,-1.5 z" style="fill:#fafafa;fill-opacity:1;fill-rule:evenodd;stroke:none;stroke-width:1px;stroke-linecap:butt;stroke-linejoin:miter;stroke-opacity:1"/></g></svg>