<svg xmlns="http://www.w3.org/2000/svg" xmlns:svg="http://www.w3.org/2000/svg" id="SVGRoot" width="40" height="40" version="1.1" viewBox="0 0 40 40"><metadata id="metadata7681"/><g id="layer1" transform="translate(0,-8)"><path style="fill:#000;fill-opacity:1;fill-rule:evenodd;stroke:none;stroke-width:1px;stroke-linecap:butt;stroke-linejoin:miter;stroke-opacity:1" id="path1704" d="m 20,16 -3.111328,9.333984 H 7.9999998 L 14.730469,30.269531 22.25,22.75 Z m 8.5,4 c -0.3135,-2.8e-4 -0.614764,0.121634 -0.839844,0.339844 L 26,22 l 4,4 1.644531,-1.644531 C 31.872281,24.129069 32.00023,23.82113 32,23.5 32.00028,23.1865 31.878366,22.885236 31.660156,22.660156 L 29.355469,20.355469 C 29.129069,20.127719 28.82113,19.99977 28.5,20 Z m -4,3.5 L 12,36 v 4 h 4 L 28.5,27.5 Z m 1.25,9.75 -2.941406,2.941406 L 28,40 Z"/></g></svg>