<svg xmlns="http://www.w3.org/2000/svg" xmlns:svg="http://www.w3.org/2000/svg" id="SVGRoot" width="36" height="36" version="1.1" viewBox="0 0 36 36"><metadata id="metadata2415"/><g id="layer1"><path style="color:#000;display:inline;overflow:visible;visibility:visible;opacity:1;fill:#000;fill-opacity:1;fill-rule:nonzero;stroke:none;stroke-width:.15000001;stroke-linecap:round;stroke-linejoin:round;stroke-miterlimit:4;stroke-dasharray:none;stroke-dashoffset:0;stroke-opacity:1;marker:none;enable-background:accumulate" id="path2149" d="M 6 10 L 6 13 L 24 13 L 24 10 L 6 10 z M 6 16 L 6 19 L 24 19 L 24 16 L 6 16 z M 6 22 L 6 25 L 18 25 L 18 22 L 6 22 z M 22.71875 22 C 22.31691 22.016795 21.99969 22.347846 22 22.75 L 22 30.248047 C 21.99908 30.837941 22.648568 31.19806 23.148438 30.884766 L 29.146484 27.134766 C 29.617804 26.841294 29.617804 26.156752 29.146484 25.863281 L 23.148438 22.113281 C 23.019967 22.033011 22.87008 21.993495 22.71875 22 z"/></g></svg>