<svg xmlns="http://www.w3.org/2000/svg" xmlns:svg="http://www.w3.org/2000/svg" id="SVGRoot" width="36" height="36" version="1.1" viewBox="0 0 36 36"><metadata id="metadata2415"/><g id="layer1"><path style="opacity:1;fill:#000;fill-opacity:1;stroke:none;stroke-width:2;stroke-linecap:round;stroke-linejoin:round;stroke-miterlimit:4;stroke-dasharray:none;stroke-dashoffset:0;stroke-opacity:1;paint-order:markers fill stroke" id="path2664" d="M 18,8 A 10,10 0 0 0 8,18 10,10 0 0 0 18,28 v -2 a 8,8 0 0 1 -8,-8 8,8 0 0 1 8,-8 8,8 0 0 1 8,8 8,8 0 0 1 -0.0312,0.621094 l 1.80078,1.46289 A 10,10 0 0 0 28,18 10,10 0 0 0 18,8 Z m -4.24023,5.759766 A 6,6 0 0 0 12,18 h 2 a 4,4 0 0 1 1.17383,-2.826172 z M 18,16 a 2,2 0 0 0 -2,2 2,2 0 0 0 2,2 2,2 0 0 0 2,-2 2,2 0 0 0 -2,-2 z m 4.98633,3 c -0.16746,0.0032 -0.32904,0.0623 -0.45899,0.167969 l -4,3.25 C 17.97977,22.863231 18.29424,23.749471 19,23.75 h 1 V 28 h 2 v -3 h 2 v 3 h 2 v -4.25 h 1 c 0.70576,-5.29e-4 1.02023,-0.886769 0.47266,-1.332031 l -4,-3.25 C 23.33542,19.056391 23.16317,18.996899 22.98633,19 Z"/></g></svg>